# xmcd CD database file
#
# Track frame offsets:
#	150
#	16885
#	34278
#	51968
#	77616
#	103918
#	122486
#	142612
#	160326
#	195723
#	212360
#	226436
#
# Disc length: 3253 seconds
#
# Revision: 0
# Processed by: cddbd v1.5.2PL0 Copyright (c) Steve Scherf et al.
# Submitted via: CDex 1.51
#
DISCID=960cb30c
DTITLE=George Benson - Greatest Hits Disc 2
DYEAR=2008
DGENRE=Jazz
TTITLE0=Give Me The Night
TTITLE1=Turn Your Love Around
TTITLE2=Being With You
TTITLE3=Love Will Come Again
TTITLE4=Mimosa
TTITLE5=20/20
TTITLE6=New Day
TTITLE7=Kisses In The Moonlight
TTITLE8=Mt. Airy Road
TTITLE9=Let's Do It Again
TTITLE10=Tenderly
TTITLE11=I Just Wanna Hang Around You
EXTD=YEAR: 2008
EXTT0=
EXTT1=
EXTT2=
EXTT3=
EXTT4=
EXTT5=
EXTT6=
EXTT7=
EXTT8=
EXTT9=
EXTT10=
EXTT11=
PLAYORDER=
